<svg xmlns="http://www.w3.org/2000/svg" viewBox="0 0 1024 1024" fill="none">
  <defs>
    <linearGradient id="g" x1="0" y1="0" x2="1" y2="1">
      <stop offset="0" stop-color="#3b82f6"/>
      <stop offset="1" stop-color="#1e40af"/>
    </linearGradient>
  </defs>
  <rect width="1024" height="1024" rx="180" fill="url(#g)"/>
  <path d="M180 600 L180 440 Q180 410 210 410 L600 410 Q630 410 630 440 L630 540 L760 540 Q790 540 810 565 L860 630 Q870 645 870 665 L870 720 Q870 745 845 745 L800 745 A55 55 0 0 1 690 745 L430 745 A55 55 0 0 1 320 745 L210 745 Q180 745 180 715 Z" fill="#fff"/>
  <circle cx="375" cy="745" r="42" fill="#0f172a"/>
  <circle cx="375" cy="745" r="18" fill="#fff"/>
  <circle cx="745" cy="745" r="42" fill="#0f172a"/>
  <circle cx="745" cy="745" r="18" fill="#fff"/>
  <path d="M80 470 L150 470 M60 530 L150 530 M80 590 L150 590" stroke="#fff" stroke-width="22" stroke-linecap="round" opacity="0.85"/>
  <path d="M660 470 L760 470 L780 540 L660 540 Z" fill="#bfdbfe"/>
</svg>
